<?xml version="1.0" standalone="no"?>
<!DOCTYPE svg PUBLIC "-//W3C//DTD SVG 20010904//EN"
 "http://www.w3.org/TR/2001/REC-SVG-20010904/DTD/svg10.dtd">
<svg version="1.0"
  xmlns="http://www.w3.org/2000/svg" width="234.000000pt" height="234.000000pt" viewBox="0 0 234.000000 234.000000" preserveAspectRatio="xMidYMid meet">
  <metadata>
Created by Felix
  </metadata>
  <g transform="translate(0.000000,234.000000) scale(0.100000,-0.100000)" fill="#000000" stroke="none">
    <path d="M790 2323 c-89 -31 -147 -96 -134 -150 4 -15 43 -102 87 -193 92
-193 149 -312 241 -505 97 -204 111 -229 142 -244 24 -12 29 -12 41 5 17 22
14 78 -11 219 -9 50 -19 110 -22 135 -3 25 -8 48 -10 51 -2 3 -13 66 -24 140
-12 73 -25 151 -30 174 -5 22 -11 60 -15 85 -10 75 -45 252 -51 262 -23 37
-138 48 -214 21z"/>
    <path d="M1698 1998 c-9 -7 -35 -42 -59 -78 -24 -36 -46 -67 -49 -70 -4 -3
-31 -41 -61 -85 -30 -44 -57 -82 -60 -85 -3 -3 -29 -39 -57 -80 -29 -41 -79
-113 -113 -159 -63 -87 -83 -129 -69 -151 13 -21 51 -1 145 79 49 42 99 84
110 93 11 9 30 25 41 35 12 10 103 87 204 172 152 129 181 157 176 175 -3 11
-6 28 -6 37 0 22 -65 95 -102 113 -38 19 -79 20 -100 4z"/>
    <path d="M1777 1415 c-502 -170 -540 -183 -560 -204 -15 -15 -17 -23 -8 -39
14 -26 33 -27 326 -25 132 1 333 2 446 2 263 1 253 -5 257 151 3 92 1 113 -16
146 -25 48 -54 76 -85 79 -13 2 -175 -48 -360 -110z"/>
    <path d="M182 1449 c-49 -48 -66 -125 -47 -206 13 -57 20 -59 245 -67 85 -3
187 -8 225 -12 131 -10 458 -13 481 -3 51 19 16 59 -73 84 -26 7 -124 36 -218
65 -93 29 -177 53 -185 55 -8 2 -89 25 -180 53 -229 69 -211 67 -248 31z"/>
    <path d="M765 1042 l-200 -78 1 -42 c1 -44 22 -77 55 -87 19 -6 39 7 264 165
108 76 136 100 129 111 -11 18 -54 6 -249 -69z"/>
    <path d="M1019 1042 c-35 -37 -91 -99 -124 -137 -33 -38 -65 -73 -70 -79 -6
-6 -42 -47 -80 -90 -39 -44 -77 -87 -85 -96 -8 -9 -40 -44 -70 -79 -30 -35
-63 -73 -73 -84 -31 -37 -7 -102 56 -150 60 -45 126 -56 160 -25 34 32 399
753 395 781 -6 44 -41 32 -109 -41z"/>
    <path d="M1175 1091 c-12 -37 -12 -36 188 -451 89 -185 159 -333 235 -492 42
-87 67 -128 81 -133 104 -33 253 45 287 150 6 17 9 36 8 43 -1 6 -2 18 -3 25
-1 6 -16 28 -34 48 -17 19 -77 89 -131 155 -55 65 -129 153 -164 194 -79 91
-88 102 -182 215 -201 242 -223 264 -262 265 -9 0 -19 -9 -23 -19z"/>
    <path d="M1336 1092 c-17 -17 2 -43 71 -97 42 -33 115 -90 161 -127 47 -37 96
-75 109 -85 14 -10 30 -23 37 -28 27 -25 62 -45 79 -45 42 0 107 103 91 144
-6 15 3 11 -274 133 -226 100 -265 115 -274 105z"/>
  </g>
</svg>
